<svg width="18" height="14" viewBox="0 0 18 14" fill="none" xmlns="http://www.w3.org/2000/svg">
<path fill-rule="evenodd" clip-rule="evenodd" d="M0.5 3C0.5 2.72386 0.72386 2.5 1 2.5H10C10.2761 2.5 10.5 2.72386 10.5 3C10.5 3.27614 10.2761 3.5 10 3.5H1C0.72386 3.5 0.5 3.27614 0.5 3Z" fill="black"/>
<path fill-rule="evenodd" clip-rule="evenodd" d="M13.5 3C13.5 2.72386 13.7239 2.5 14 2.5H17C17.2761 2.5 17.5 2.72386 17.5 3C17.5 3.27614 17.2761 3.5 17 3.5H14C13.7239 3.5 13.5 3.27614 13.5 3Z" fill="black"/>
<path fill-rule="evenodd" clip-rule="evenodd" d="M7.5 11C7.5 10.7239 7.7239 10.5 8 10.5H17C17.2761 10.5 17.5 10.7239 17.5 11C17.5 11.2761 17.2761 11.5 17 11.5H8C7.7239 11.5 7.5 11.2761 7.5 11Z" fill="black"/>
<path fill-rule="evenodd" clip-rule="evenodd" d="M0.5 11C0.5 10.7239 0.72386 10.5 1 10.5H4C4.27614 10.5 4.5 10.7239 4.5 11C4.5 11.2761 4.27614 11.5 4 11.5H1C0.72386 11.5 0.5 11.2761 0.5 11Z" fill="black"/>
<path fill-rule="evenodd" clip-rule="evenodd" d="M6 9.5C5.17157 9.5 4.5 10.1716 4.5 11C4.5 11.8284 5.17157 12.5 6 12.5C6.82843 12.5 7.5 11.8284 7.5 11C7.5 10.1716 6.82843 9.5 6 9.5ZM3.5 11C3.5 9.6193 4.61929 8.5 6 8.5C7.3807 8.5 8.5 9.6193 8.5 11C8.5 12.3807 7.3807 13.5 6 13.5C4.61929 13.5 3.5 12.3807 3.5 11Z" fill="black"/>
<path fill-rule="evenodd" clip-rule="evenodd" d="M12 1.5C11.1716 1.5 10.5 2.17157 10.5 3C10.5 3.82843 11.1716 4.5 12 4.5C12.8284 4.5 13.5 3.82843 13.5 3C13.5 2.17157 12.8284 1.5 12 1.5ZM9.5 3C9.5 1.61929 10.6193 0.5 12 0.5C13.3807 0.5 14.5 1.61929 14.5 3C14.5 4.38071 13.3807 5.5 12 5.5C10.6193 5.5 9.5 4.38071 9.5 3Z" fill="black"/>
</svg>
