<svg width="20" height="18" viewBox="0 0 20 18" fill="none" xmlns="http://www.w3.org/2000/svg">
<path d="M14.0908 0.666809C12.462 0.669324 10.9362 1.46374 9.99992 2.79645C9.0636 1.46374 7.5378 0.669324 5.90901 0.666809C3.24536 0.666809 0.909012 3.14506 0.909012 5.96984C0.909012 8.72286 2.46352 11.5583 5.40475 14.1699C6.7675 15.3775 8.26238 16.4273 9.86083 17.2996C9.94813 17.3446 10.0517 17.3446 10.139 17.2996C11.7369 16.4273 13.2313 15.3774 14.5936 14.1699C17.5363 11.5583 19.0908 8.72286 19.0908 5.96984C19.0908 3.14506 16.7545 0.666809 14.0908 0.666809V0.666809ZM9.99992 16.6858C8.88694 16.0716 1.51507 11.7807 1.51507 5.96984C1.51507 3.46777 3.56807 1.27287 5.90901 1.27287C7.49489 1.27568 8.95677 2.13121 9.73595 3.5126C9.79425 3.60168 9.89353 3.65524 9.99992 3.65524C10.1063 3.65524 10.2056 3.60168 10.2639 3.5126C11.0431 2.13121 12.505 1.27568 14.0908 1.27287C16.4318 1.27287 18.4848 3.46777 18.4848 5.96984C18.4848 11.7807 11.1129 16.0716 9.99992 16.6858Z" fill="#141211" stroke="#141211" stroke-width="0.3"/>
</svg>
